<?xml version="1.0" standalone="no"?>
<!DOCTYPE svg PUBLIC "-//W3C//DTD SVG 20010904//EN"
 "http://www.w3.org/TR/2001/REC-SVG-20010904/DTD/svg10.dtd">
<svg version="1.0" xmlns="http://www.w3.org/2000/svg"
 width="96.000000pt" height="96.000000pt" viewBox="0 0 96.000000 96.000000"
 preserveAspectRatio="xMidYMid meet">

<g transform="translate(0.000000,96.000000) scale(0.100000,-0.100000)"
fill="#000000" stroke="none">
<path d="M25 935 l-25 -24 0 -431 0 -431 25 -24 24 -25 431 0 431 0 24 25 25
24 0 431 0 431 -25 24 -24 25 -431 0 -431 0 -24 -25z m603 -205 c45 -20 72
-63 72 -116 0 -38 -27 -89 -56 -105 l-25 -13 35 -18 c50 -26 69 -68 64 -139
-3 -45 -10 -65 -29 -85 -49 -53 -71 -58 -256 -62 l-173 -4 0 281 0 281 163 0
c139 0 168 -3 205 -20z"/>
<path d="M360 595 l0 -75 98 0 c115 0 142 14 142 75 0 62 -24 75 -140 75
l-100 0 0 -75z"/>
<path d="M360 360 l0 -90 98 0 c58 0 107 5 122 13 36 18 54 62 43 101 -13 48
-59 66 -170 66 l-93 0 0 -90z"/>
</g>
</svg>
